<svg xmlns="http://www.w3.org/2000/svg" xmlns:svg="http://www.w3.org/2000/svg" xmlns:xlink="http://www.w3.org/1999/xlink" id="svg3479" x="0" y="0" version="1.1" viewBox="0 0 170.3 181.4" xml:space="preserve" style="enable-background:new 0 0 170.3 181.4"><style type="text/css">.st0{fill:none}.st1{fill:#347bbd}.st2{fill:url(#SVGID_1_)}.st3{fill:url(#SVGID_2_)}.st4{fill:#a8dff8}</style><g><polygon points="38.2 165 38.2 165 57.6 165 57.6 155.2 57.4 155.7" class="st0"/><polygon points="38.2 164.6 38.2 165 38.4 164.5" class="st0"/><polygon points="57.6 155.2 57.6 155.2 57.6 155.2 39.6 163.9" class="st0"/><path d="M111.9,0l3,9.4l9.1,28.2l-11.1,16.9l-28.1,0.7l-9.4,0.2L111.9,0H0v58.9l13.9-0.3l0,0l39.9-1l41.1,38.8 l-17.1,49.1l-20.2,9.8h0v0v0v9.8H38.2v0v0v-0.4l-11.8,5.7l25.8-62L0,58.9V182h170.9V0H111.9z M106.3,137.2l9.3-4l0,0l34.4-14.7 L166,168l4.3,13.4L106.3,137.2z" class="st0"/><polygon points="13.9 58.6 0 58.9 52.3 108.3 26.4 170.3 38.2 164.6 38.4 164.5 38.4 164.5 38.4 164.5 42.3 155.2 63.1 105.1" class="st1"/><linearGradient id="SVGID_1_" x1="-336.826" x2="-335.826" y1="387.21" y2="387.21" gradientTransform="matrix(-87.5418 -164.4362 -164.4362 87.5418 34262.8398 -89067.2344)" gradientUnits="userSpaceOnUse"><stop offset="0" style="stop-color:#fff;stop-opacity:0"/><stop offset="1" style="stop-color:#fff"/></linearGradient><polygon points="38.4 164.5 38.4 164.5 38.4 164.5 38.2 165 38.2 165 57.4 155.7 57.6 155.2 57.6 155.2 39.6 163.9" class="st2"/><polygon points="38.4 164.5 38.4 164.5 38.4 164.5 38.4 164.5 38.4 164.5 38.4 164.5" class="st1"/><linearGradient id="SVGID_2_" x1="-336.505" x2="-336.458" y1="387.266" y2="387.266" gradientTransform="matrix(-87.5418 -164.4362 -164.4362 87.5418 34262.8398 -89067.2344)" gradientUnits="userSpaceOnUse"><stop offset="0" style="stop-color:#fff;stop-opacity:0"/><stop offset="1" style="stop-color:#fff"/></linearGradient><polygon points="38.4 164.5 38.4 164.5 38.4 164.5 38.4 164.5 38.4 164.5 38.4 164.5" class="st3"/><polygon points="53.8 57.6 13.9 58.6 13.9 58.6 13.9 58.6 63.1 105.1 42.3 155.2 38.4 164.5 39.6 163.9 57.6 155.2 77.8 145.4 94.8 96.4" class="st4"/><polygon points="38.4 164.5 42.3 155.2 42.3 155.2 38.4 164.5" class="st4"/><polygon points="42.3 155.2 42.3 155.2 63.1 105.1 13.9 58.6 13.9 58.6 63.1 105.1" class="st4"/><polygon points="39.6 163.9 38.4 164.5 38.4 164.5" class="st4"/><polygon points="38.4 164.5 38.4 164.5 38.4 164.5 38.4 164.5" class="st4"/><polygon points="115.6 133.2 115.6 133.2 115.6 133.2 106.3 137.2 170.3 181.4 166 168" class="st1"/><polygon points="84.8 55.1 114.9 9.4 111.9 0 111.9 0 75.5 55.4" class="st1"/><polygon points="111.9 0 111.9 0 111.9 0" class="st1"/><polygon points="166 168 150 118.5 115.6 133.2 115.6 133.2" class="st4"/><polygon points="112.9 54.5 124 37.6 114.9 9.4 84.8 55.1" class="st4"/></g></svg>